<svg version="1.0" xmlns="http://www.w3.org/2000/svg" width="300.000000pt" height="300.000000pt" viewBox="0 0 300.000000 300.000000" preserveAspectRatio="xMidYMid meet"> <g transform="translate(0.000000,300.000000) scale(0.100000,-0.100000)" fill="#008080" stroke="none"> <path d="M783 2714 c-11 -16 -57 -94 -103 -174 -46 -80 -129 -224 -185 -320 -56 -96 -152 -260 -212 -365 -61 -104 -120 -206 -132 -225 -11 -19 -30 -52 -41 -73 l-21 -38 123 -216 c68 -118 130 -227 138 -242 8 -14 35 -61 60 -105 25 -43 54 -95 66 -115 48 -83 115 -199 209 -365 89 -157 103 -176 130 -181 17 -3 336 -4 710 -3 l679 3 31 52 c16 29 57 99 89 155 102 177 475 819 532 915 l55 93 -38 67 c-20 38 -50 91 -67 118 -16 28 -46 79 -66 115 -20 36 -46 81 -57 100 -11 19 -119 206 -238 415 -120 209 -224 386 -231 394 -11 12 -124 15 -712 19 l-699 5 -20 -29z" id="node1" class="node" stroke-width="20"></path> </g> </svg>
