<?xml version="1.0" standalone="no"?>
<!DOCTYPE svg PUBLIC "-//W3C//DTD SVG 20010904//EN"
 "http://www.w3.org/TR/2001/REC-SVG-20010904/DTD/svg10.dtd">
<svg version="1.0" xmlns="http://www.w3.org/2000/svg"
 width="16.000000pt" height="16.000000pt" viewBox="0 0 16.000000 16.000000"
 preserveAspectRatio="xMidYMid meet">
<metadata>
Created by potrace 1.11, written by Peter Selinger 2001-2013
</metadata>
<g transform="translate(0.000000,16.000000) scale(0.002286,-0.002286)"
fill="#000000" stroke="none">
<path d="M1832 6338 c-22 -35 -52 -83 -66 -108 -15 -25 -31 -52 -36 -60 -14
-21 -192 -326 -222 -380 -14 -25 -73 -128 -133 -230 -59 -102 -134 -232 -167
-290 -34 -58 -71 -121 -83 -140 -12 -19 -36 -60 -52 -90 -17 -30 -148 -257
-292 -503 -144 -246 -261 -452 -261 -457 0 -4 -3 -10 -8 -12 -7 -3 -143 -234
-257 -438 -52 -92 -52 -79 -7 -155 15 -25 355 -624 390 -685 13 -25 49 -87 78
-138 30 -52 54 -98 54 -103 0 -5 3 -9 8 -9 4 0 12 -10 18 -23 23 -49 59 -112
67 -115 4 -2 7 -8 7 -13 0 -5 68 -127 152 -271 83 -145 165 -288 181 -318 17
-30 48 -84 69 -119 21 -34 38 -65 38 -68 0 -2 16 -29 35 -59 19 -30 35 -57 35
-59 0 -3 32 -60 71 -128 40 -67 84 -144 99 -172 67 -122 205 -354 243 -409 23
-32 55 -69 70 -80 l28 -21 1542 0 c848 0 1580 1 1627 3 l85 3 80 137 c44 75
85 146 91 157 6 11 61 108 124 215 62 107 124 215 138 240 13 25 28 50 32 55
4 6 106 179 225 385 120 206 274 472 343 590 69 118 146 251 171 295 60 105
50 87 175 302 61 104 135 231 166 283 31 52 67 113 79 136 l23 40 -30 50 c-32
56 -67 117 -120 214 -19 36 -45 81 -57 100 -12 19 -34 58 -50 85 -35 64 -668
1169 -790 1380 -51 88 -102 176 -112 195 -47 84 -284 489 -370 633 -67 112
-102 161 -120 168 -61 23 -441 30 -2529 44 l-742 5 -40 -62z"/>
</g>
</svg>
